<svg width="1600" height="420" viewBox="0 0 1600 420" fill="none" xmlns="http://www.w3.org/2000/svg" role="img" aria-labelledby="title desc">
  <title id="title">NewAPI Langfuse Proxy</title>
  <desc id="desc">Dark banner with a proxy flow diagram connecting consumer, NewAPI upstream, and Langfuse telemetry.</desc>
  <defs>
    <linearGradient id="bg" x1="120" y1="30" x2="1500" y2="390" gradientUnits="userSpaceOnUse">
      <stop stop-color="#08111F" />
      <stop offset="0.52" stop-color="#0C1728" />
      <stop offset="1" stop-color="#050A12" />
    </linearGradient>
    <radialGradient id="glowA" cx="0" cy="0" r="1" gradientUnits="userSpaceOnUse" gradientTransform="translate(360 120) rotate(18) scale(260 180)">
      <stop stop-color="#4DE2FF" stop-opacity="0.42" />
      <stop offset="1" stop-color="#4DE2FF" stop-opacity="0" />
    </radialGradient>
    <radialGradient id="glowB" cx="0" cy="0" r="1" gradientUnits="userSpaceOnUse" gradientTransform="translate(1210 285) rotate(-20) scale(300 210)">
      <stop stop-color="#FF9A3C" stop-opacity="0.26" />
      <stop offset="1" stop-color="#FF9A3C" stop-opacity="0" />
    </radialGradient>
    <linearGradient id="line" x1="160" y1="220" x2="1420" y2="220" gradientUnits="userSpaceOnUse">
      <stop stop-color="#4DE2FF" />
      <stop offset="0.5" stop-color="#8DFFF1" />
      <stop offset="1" stop-color="#FF9A3C" />
    </linearGradient>
    <filter id="blur" x="-50%" y="-50%" width="200%" height="200%">
      <feGaussianBlur stdDeviation="16" />
    </filter>
    <filter id="softGlow" x="-40%" y="-40%" width="180%" height="180%">
      <feGaussianBlur stdDeviation="6" result="b" />
      <feColorMatrix in="b" type="matrix" values="1 0 0 0 0  0 1 0 0 0.05  0 0 1 0 0.08  0 0 0 0.8 0" />
    </filter>
  </defs>

  <rect width="1600" height="420" rx="32" fill="url(#bg)" />
  <rect x="0.5" y="0.5" width="1599" height="419" rx="31.5" stroke="rgba(255,255,255,0.08)" />

  <g opacity="0.9" filter="url(#blur)">
    <ellipse cx="340" cy="116" rx="220" ry="150" fill="url(#glowA)" />
    <ellipse cx="1210" cy="284" rx="280" ry="190" fill="url(#glowB)" />
  </g>

  <g opacity="0.14">
    <path d="M118 72H1540" stroke="white" />
    <path d="M118 348H1540" stroke="white" />
    <path d="M188 40V380" stroke="white" />
    <path d="M1412 40V380" stroke="white" />
  </g>

  <g filter="url(#softGlow)" stroke="url(#line)" stroke-width="4" stroke-linecap="round" stroke-linejoin="round">
    <path d="M192 224C296 176 389 176 490 224C592 272 686 272 790 224C898 174 994 174 1090 224C1186 274 1280 274 1384 224" />
    <path d="M792 224C826 194 862 176 900 168C956 156 1000 168 1042 192" />
    <path d="M792 224C826 254 862 272 900 280C956 292 1000 280 1042 256" />
  </g>

  <g>
    <circle cx="192" cy="224" r="20" fill="#07111E" stroke="#4DE2FF" stroke-width="4" />
    <circle cx="490" cy="224" r="20" fill="#07111E" stroke="#8DFFF1" stroke-width="4" />
    <circle cx="792" cy="224" r="28" fill="#0D192B" stroke="#FFFFFF" stroke-opacity="0.8" stroke-width="4" />
    <circle cx="1090" cy="224" r="20" fill="#07111E" stroke="#FF9A3C" stroke-width="4" />
    <circle cx="1384" cy="224" r="20" fill="#07111E" stroke="#FFD0A1" stroke-width="4" />

    <circle cx="900" cy="168" r="10" fill="#07111E" stroke="#4DE2FF" stroke-width="3" />
    <circle cx="900" cy="280" r="10" fill="#07111E" stroke="#FF9A3C" stroke-width="3" />
    <circle cx="1042" cy="192" r="10" fill="#07111E" stroke="#8DFFF1" stroke-width="3" />
    <circle cx="1042" cy="256" r="10" fill="#07111E" stroke="#FFD0A1" stroke-width="3" />
  </g>

  <g font-family="Inter, ui-sans-serif, system-ui, -apple-system, BlinkMacSystemFont, sans-serif" fill="#F4F7FB">
    <text x="112" y="118" font-size="28" letter-spacing="0.32em" fill="#8AA4C2">LANGFUSE PROXY</text>
    <text x="112" y="194" font-size="78" font-weight="800">NewAPI</text>
    <text x="112" y="258" font-size="54" font-weight="700" fill="#C9D6E8">Telemetry in the path,</text>
    <text x="112" y="314" font-size="54" font-weight="700" fill="#C9D6E8">latency out of the way.</text>
  </g>

  <g font-family="Inter, ui-sans-serif, system-ui, -apple-system, BlinkMacSystemFont, sans-serif" font-size="22" letter-spacing="0.04em">
    <text x="1450" y="122" text-anchor="end" fill="#8AA4C2">consumer</text>
    <text x="1450" y="156" text-anchor="end" fill="#4DE2FF">proxy</text>
    <text x="1450" y="190" text-anchor="end" fill="#FF9A3C">newapi</text>
    <text x="1450" y="224" text-anchor="end" fill="#FFD0A1">langfuse</text>
  </g>

  <g opacity="0.9">
    <rect x="112" y="336" width="226" height="40" rx="20" fill="rgba(77,226,255,0.12)" stroke="rgba(77,226,255,0.55)" />
    <text x="225" y="363" text-anchor="middle" font-family="Inter, ui-sans-serif, system-ui, -apple-system, BlinkMacSystemFont, sans-serif" font-size="18" fill="#DDFBFF" letter-spacing="0.12em">OPENAI-COMPATIBLE</text>
  </g>
</svg>
